<svg width="140" height="64" viewBox="0 0 140 64" fill="none" xmlns="http://www.w3.org/2000/svg">
<g filter="url(#filter0_f_1853_79)">
<path d="M8 44L20 20H32L20 44H8Z" fill="#FF002E"/>
</g>
<g filter="url(#filter1_f_1853_79)">
<path d="M20 44L32 20H44L32 44H20Z" fill="#70FF00"/>
</g>
<g filter="url(#filter2_f_1853_79)">
<path d="M32 44L44 20H56L44 44H32Z" fill="#0066FF"/>
</g>
<path d="M8 44L20 20H32L20 44H8Z" fill="#FF002E"/>
<path d="M20 44L32 20H44L32 44H20Z" fill="#70FF00"/>
<path d="M32 44L44 20H56L44 44H32Z" fill="#0066FF"/>
<path d="M130.916 27.104H131.324V30.44H130.772C129.876 30.44 129.092 30.6 128.42 30.92V41.336H124.796V27.176H128.204V28.136C129.02 27.64 129.588 27.344 129.908 27.248C130.244 27.152 130.58 27.104 130.916 27.104Z" fill="white"/>
<path d="M119.319 30.92C119.319 30.312 118.983 30.008 118.311 30.008C117.639 30.008 117.303 30.312 117.303 30.92V37.592C117.303 38.2 117.639 38.504 118.311 38.504C118.983 38.504 119.319 38.2 119.319 37.592V30.92ZM113.751 30.8C113.751 29.584 114.127 28.64 114.879 27.968C115.647 27.28 116.791 26.936 118.311 26.936C119.831 26.936 120.967 27.28 121.719 27.968C122.487 28.64 122.871 29.584 122.871 30.8V37.712C122.871 38.928 122.487 39.88 121.719 40.568C120.967 41.24 119.831 41.576 118.311 41.576C116.791 41.576 115.647 41.24 114.879 40.568C114.127 39.88 113.751 38.928 113.751 37.712V30.8Z" fill="white"/>
<path d="M108.202 23.4081H111.826V41.3361H108.202V23.4081Z" fill="white"/>
<path d="M102.725 30.92C102.725 30.312 102.389 30.008 101.717 30.008C101.045 30.008 100.709 30.312 100.709 30.92V37.592C100.709 38.2 101.045 38.504 101.717 38.504C102.389 38.504 102.725 38.2 102.725 37.592V30.92ZM97.1572 30.8C97.1572 29.584 97.5332 28.64 98.2852 27.968C99.0532 27.28 100.197 26.936 101.717 26.936C103.237 26.936 104.373 27.28 105.125 27.968C105.893 28.64 106.277 29.584 106.277 30.8V37.712C106.277 38.928 105.893 39.88 105.125 40.568C104.373 41.24 103.237 41.576 101.717 41.576C100.197 41.576 99.0532 41.24 98.2852 40.568C97.5332 39.88 97.1572 38.928 97.1572 37.712V30.8Z" fill="white"/>
<path d="M88.1338 31.232C88.1338 28.448 89.7018 27.056 92.8378 27.056C93.9578 27.056 94.9578 27.176 95.8378 27.416V30.752C94.9898 30.496 94.2298 30.368 93.5578 30.368C92.9018 30.368 92.4378 30.456 92.1658 30.632C91.8938 30.792 91.7578 31.096 91.7578 31.544V36.968C91.7578 37.416 91.8938 37.728 92.1658 37.904C92.4378 38.064 92.9018 38.144 93.5578 38.144C94.2298 38.144 94.9898 38.016 95.8378 37.76V41.096C94.9578 41.336 93.9578 41.456 92.8378 41.456C89.7018 41.456 88.1338 40.064 88.1338 37.28V31.232Z" fill="white"/>
<path d="M84.3846 26.768C83.0566 26.768 82.3926 26.144 82.3926 24.896C82.3926 23.632 83.0566 23 84.3846 23C85.7286 23 86.4006 23.632 86.4006 24.896C86.4006 26.144 85.7286 26.768 84.3846 26.768ZM82.5846 27.56H86.2086V41.336H82.5846V27.56Z" fill="white"/>
<path d="M80.9706 27.104H81.3786V30.44H80.8266C79.9306 30.44 79.1466 30.6 78.4746 30.92V41.336H74.8506V27.176H78.2586V28.136C79.0746 27.64 79.6426 27.344 79.9626 27.248C80.2986 27.152 80.6346 27.104 80.9706 27.104Z" fill="white"/>
<path d="M73.648 24.7041V27.8241H70.648V41.3361H67V27.8241H64V24.7041H73.648Z" fill="white"/>
<defs>
<filter id="filter0_f_1853_79" x="0" y="12" width="40" height="40" filterUnits="userSpaceOnUse" color-interpolation-filters="sRGB">
<feFlood flood-opacity="0" result="BackgroundImageFix"/>
<feBlend mode="normal" in="SourceGraphic" in2="BackgroundImageFix" result="shape"/>
<feGaussianBlur stdDeviation="4" result="effect1_foregroundBlur_1853_79"/>
</filter>
<filter id="filter1_f_1853_79" x="12" y="12" width="40" height="40" filterUnits="userSpaceOnUse" color-interpolation-filters="sRGB">
<feFlood flood-opacity="0" result="BackgroundImageFix"/>
<feBlend mode="normal" in="SourceGraphic" in2="BackgroundImageFix" result="shape"/>
<feGaussianBlur stdDeviation="4" result="effect1_foregroundBlur_1853_79"/>
</filter>
<filter id="filter2_f_1853_79" x="24" y="12" width="40" height="40" filterUnits="userSpaceOnUse" color-interpolation-filters="sRGB">
<feFlood flood-opacity="0" result="BackgroundImageFix"/>
<feBlend mode="normal" in="SourceGraphic" in2="BackgroundImageFix" result="shape"/>
<feGaussianBlur stdDeviation="4" result="effect1_foregroundBlur_1853_79"/>
</filter>
</defs>
</svg>
