<svg width="64" height="64" viewBox="0 0 64 64" fill="none" xmlns="http://www.w3.org/2000/svg">
<g filter="url(#filter0_f_1853_113)">
<path d="M8 44L20 20H32L20 44H8Z" fill="#FF002E"/>
</g>
<g filter="url(#filter1_f_1853_113)">
<path d="M20 44L32 20H44L32 44H20Z" fill="#70FF00"/>
</g>
<g filter="url(#filter2_f_1853_113)">
<path d="M32 44L44 20H56L44 44H32Z" fill="#0066FF"/>
</g>
<path d="M8 44L20 20H32L20 44H8Z" fill="#FF002E"/>
<path d="M20 44L32 20H44L32 44H20Z" fill="#70FF00"/>
<path d="M32 44L44 20H56L44 44H32Z" fill="#0066FF"/>
<defs>
<filter id="filter0_f_1853_113" x="0" y="12" width="40" height="40" filterUnits="userSpaceOnUse" color-interpolation-filters="sRGB">
<feFlood flood-opacity="0" result="BackgroundImageFix"/>
<feBlend mode="normal" in="SourceGraphic" in2="BackgroundImageFix" result="shape"/>
<feGaussianBlur stdDeviation="4" result="effect1_foregroundBlur_1853_113"/>
</filter>
<filter id="filter1_f_1853_113" x="12" y="12" width="40" height="40" filterUnits="userSpaceOnUse" color-interpolation-filters="sRGB">
<feFlood flood-opacity="0" result="BackgroundImageFix"/>
<feBlend mode="normal" in="SourceGraphic" in2="BackgroundImageFix" result="shape"/>
<feGaussianBlur stdDeviation="4" result="effect1_foregroundBlur_1853_113"/>
</filter>
<filter id="filter2_f_1853_113" x="24" y="12" width="40" height="40" filterUnits="userSpaceOnUse" color-interpolation-filters="sRGB">
<feFlood flood-opacity="0" result="BackgroundImageFix"/>
<feBlend mode="normal" in="SourceGraphic" in2="BackgroundImageFix" result="shape"/>
<feGaussianBlur stdDeviation="4" result="effect1_foregroundBlur_1853_113"/>
</filter>
</defs>
</svg>
