<svg width="480" height="270" viewBox="0 0 480 270" fill="none" xmlns="http://www.w3.org/2000/svg">
<g clip-path="url(#clip0_2000_674)">
<rect width="480" height="270" fill="white"/>
<rect width="480" height="270" fill="#1F232D"/>
<g filter="url(#filter0_n_2000_674)">
<path d="M133.831 47.1711C134.126 46.8762 135.264 47.6488 135.264 47.6488C135.264 47.6488 136.402 46.8762 136.697 47.1711C136.991 47.466 136.219 48.6041 136.219 48.6041C136.219 48.6041 136.991 49.742 136.697 50.0369C136.402 50.3318 135.264 49.5593 135.264 49.5593C135.264 49.5593 134.126 50.3318 133.831 50.0369C133.536 49.742 134.308 48.6041 134.308 48.6041C134.308 48.6041 133.536 47.466 133.831 47.1711Z" fill="#626B81"/>
<path d="M286.02 116.87C286.315 116.575 287.453 117.348 287.453 117.348C287.453 117.348 288.591 116.575 288.886 116.87C289.181 117.165 288.408 118.303 288.408 118.303C288.408 118.303 289.181 119.441 288.886 119.736C288.591 120.031 287.453 119.258 287.453 119.258C287.453 119.258 286.315 120.031 286.02 119.736C285.725 119.441 286.498 118.303 286.498 118.303C286.498 118.303 285.725 117.165 286.02 116.87Z" fill="#404759"/>
<path d="M165.76 33.5051C166.054 33.2102 167.192 33.9828 167.192 33.9828C167.192 33.9828 168.33 33.2102 168.625 33.5051C168.92 33.8 168.148 34.938 168.148 34.938C168.148 34.938 168.92 36.0759 168.625 36.3709C168.33 36.6658 167.192 35.8933 167.192 35.8933C167.192 35.8933 166.054 36.6658 165.76 36.3709C165.465 36.0759 166.237 34.938 166.237 34.938C166.237 34.938 165.465 33.8 165.76 33.5051Z" fill="#2C3240"/>
<path d="M65.2322 122.148C65.5271 121.853 66.6651 122.625 66.6651 122.625C66.6651 122.625 67.803 121.853 68.0979 122.148C68.3928 122.443 67.6203 123.581 67.6203 123.581C67.6203 123.581 68.3928 124.719 68.0979 125.013C67.803 125.308 66.6651 124.536 66.6651 124.536C66.6651 124.536 65.5271 125.308 65.2322 125.013C64.9372 124.719 65.7098 123.581 65.7098 123.581C65.7098 123.581 64.9372 122.443 65.2322 122.148Z" fill="#626B81"/>
<path d="M40.7497 255.725C41.0447 255.43 42.1827 256.203 42.1827 256.203C42.1827 256.203 43.3206 255.43 43.6155 255.725C43.9104 256.02 43.1379 257.158 43.1379 257.158C43.1379 257.158 43.9104 258.296 43.6155 258.591C43.3206 258.886 42.1827 258.114 42.1827 258.114C42.1827 258.114 41.0447 258.886 40.7497 258.591C40.4548 258.296 41.2274 257.158 41.2274 257.158C41.2274 257.158 40.4548 256.02 40.7497 255.725Z" fill="#404759"/>
<path d="M123.328 109.363C123.623 109.068 124.761 109.841 124.761 109.841C124.761 109.841 125.899 109.068 126.194 109.363C126.489 109.658 125.716 110.796 125.716 110.796C125.716 110.796 126.489 111.934 126.194 112.229C125.899 112.524 124.761 111.751 124.761 111.751C124.761 111.751 123.623 112.524 123.328 112.229C123.033 111.934 123.806 110.796 123.806 110.796C123.806 110.796 123.033 109.658 123.328 109.363Z" fill="#2C3240"/>
<path d="M419.174 14.4148C419.468 14.1199 420.606 14.8925 420.606 14.8925C420.606 14.8925 421.744 14.1199 422.039 14.4148C422.334 14.7097 421.562 15.8477 421.562 15.8477C421.562 15.8477 422.334 16.9856 422.039 17.2805C421.744 17.5755 420.606 16.803 420.606 16.803C420.606 16.803 419.468 17.5755 419.174 17.2805C418.879 16.9856 419.651 15.8477 419.651 15.8477C419.651 15.8477 418.879 14.7097 419.174 14.4148Z" fill="#626B81"/>
<path d="M454.741 48.5139C455.036 48.219 456.174 48.9916 456.174 48.9916C456.174 48.9916 457.312 48.219 457.607 48.5139C457.902 48.8088 457.129 49.9468 457.129 49.9468C457.129 49.9468 457.902 51.0847 457.607 51.3797C457.312 51.6746 456.174 50.9021 456.174 50.9021C456.174 50.9021 455.036 51.6746 454.741 51.3797C454.446 51.0847 455.219 49.9468 455.219 49.9468C455.219 49.9468 454.446 48.8088 454.741 48.5139Z" fill="#404759"/>
<path d="M294.481 84.6457C294.776 84.3508 295.914 85.1234 295.914 85.1234C295.914 85.1234 297.052 84.3508 297.347 84.6457C297.642 84.9407 296.869 86.0787 296.869 86.0787C296.869 86.0787 297.642 87.2166 297.347 87.5115C297.052 87.8064 295.914 87.0339 295.914 87.0339C295.914 87.0339 294.776 87.8064 294.481 87.5115C294.186 87.2166 294.959 86.0787 294.959 86.0787C294.959 86.0787 294.186 84.9407 294.481 84.6457Z" fill="#2C3240"/>
<path d="M402.1 102.271C402.395 101.976 403.533 102.748 403.533 102.748C403.533 102.748 404.671 101.976 404.966 102.271C405.261 102.566 404.489 103.704 404.489 103.704C404.489 103.704 405.261 104.842 404.966 105.136C404.671 105.431 403.533 104.659 403.533 104.659C403.533 104.659 402.395 105.431 402.1 105.136C401.805 104.842 402.578 103.704 402.578 103.704C402.578 103.704 401.805 102.566 402.1 102.271Z" fill="#626B81"/>
<path d="M250.168 83.3357C250.463 83.0408 251.601 83.8133 251.601 83.8133C251.601 83.8133 252.739 83.0408 253.033 83.3357C253.328 83.6306 252.556 84.7686 252.556 84.7686C252.556 84.7686 253.328 85.9065 253.033 86.2014C252.739 86.4964 251.601 85.7239 251.601 85.7239C251.601 85.7239 250.463 86.4964 250.168 86.2014C249.873 85.9065 250.645 84.7686 250.645 84.7686C250.645 84.7686 249.873 83.6306 250.168 83.3357Z" fill="#404759"/>
<path d="M477.067 174.19C477.362 173.895 478.5 174.667 478.5 174.667C478.5 174.667 479.638 173.895 479.933 174.19C480.228 174.485 479.455 175.623 479.455 175.623C479.455 175.623 480.228 176.761 479.933 177.055C479.638 177.35 478.5 176.578 478.5 176.578C478.5 176.578 477.362 177.35 477.067 177.055C476.772 176.761 477.545 175.623 477.545 175.623C477.545 175.623 476.772 174.485 477.067 174.19Z" fill="#2C3240"/>
<path d="M99.9861 71.0764C100.281 70.7815 101.419 71.5541 101.419 71.5541C101.419 71.5541 102.557 70.7815 102.852 71.0764C103.147 71.3713 102.374 72.5093 102.374 72.5093C102.374 72.5093 103.147 73.6472 102.852 73.9422C102.557 74.2371 101.419 73.4646 101.419 73.4646C101.419 73.4646 100.281 74.2371 99.9861 73.9422C99.6911 73.6472 100.464 72.5093 100.464 72.5093C100.464 72.5093 99.6911 71.3713 99.9861 71.0764Z" fill="#626B81"/>
<path d="M37.6794 97.8142C37.9743 97.5193 39.1124 98.2919 39.1124 98.2919C39.1124 98.2919 40.2503 97.5193 40.5452 97.8142C40.8401 98.1091 40.0676 99.2471 40.0676 99.2471C40.0676 99.2471 40.8401 100.385 40.5452 100.68C40.2503 100.975 39.1124 100.202 39.1124 100.202C39.1124 100.202 37.9743 100.975 37.6794 100.68C37.3845 100.385 38.1571 99.2471 38.1571 99.2471C38.1571 99.2471 37.3845 98.1091 37.6794 97.8142Z" fill="#404759"/>
<path d="M36.8357 256.649C37.1306 256.354 38.2686 257.126 38.2686 257.126C38.2686 257.126 39.4065 256.354 39.7014 256.649C39.9964 256.944 39.2239 258.082 39.2239 258.082C39.2239 258.082 39.9964 259.22 39.7014 259.514C39.4065 259.809 38.2686 259.037 38.2686 259.037C38.2686 259.037 37.1306 259.809 36.8357 259.514C36.5408 259.22 37.3133 258.082 37.3133 258.082C37.3133 258.082 36.5408 256.944 36.8357 256.649Z" fill="#2C3240"/>
<path d="M321.295 177.593C321.59 177.298 322.728 178.07 322.728 178.07C322.728 178.07 323.865 177.298 324.16 177.593C324.455 177.887 323.683 179.025 323.683 179.025C323.683 179.025 324.455 180.163 324.16 180.458C323.865 180.753 322.728 179.981 322.728 179.981C322.728 179.981 321.59 180.753 321.295 180.458C321 180.163 321.772 179.025 321.772 179.025C321.772 179.025 321 177.887 321.295 177.593Z" fill="#626B81"/>
<path d="M124.433 222.176C124.728 221.882 125.866 222.654 125.866 222.654C125.866 222.654 127.004 221.882 127.299 222.176C127.594 222.471 126.822 223.609 126.822 223.609C126.822 223.609 127.594 224.747 127.299 225.042C127.004 225.337 125.866 224.565 125.866 224.565C125.866 224.565 124.728 225.337 124.433 225.042C124.138 224.747 124.911 223.609 124.911 223.609C124.911 223.609 124.138 222.471 124.433 222.176Z" fill="#404759"/>
<path d="M466.83 245.639C467.125 245.344 468.263 246.117 468.263 246.117C468.263 246.117 469.401 245.344 469.696 245.639C469.99 245.934 469.218 247.072 469.218 247.072C469.218 247.072 469.99 248.21 469.696 248.505C469.401 248.8 468.263 248.027 468.263 248.027C468.263 248.027 467.125 248.8 466.83 248.505C466.535 248.21 467.307 247.072 467.307 247.072C467.307 247.072 466.535 245.934 466.83 245.639Z" fill="#2C3240"/>
<path d="M89.2419 188.958C89.5368 188.663 90.6749 189.435 90.6749 189.435C90.6749 189.435 91.8128 188.663 92.1077 188.958C92.4026 189.253 91.6301 190.391 91.6301 190.391C91.6301 190.391 92.4026 191.529 92.1077 191.824C91.8128 192.118 90.6749 191.346 90.6749 191.346C90.6749 191.346 89.5368 192.118 89.2419 191.824C88.947 191.529 89.7196 190.391 89.7196 190.391C89.7196 190.391 88.947 189.253 89.2419 188.958Z" fill="#626B81"/>
<path d="M385.617 211.864C385.912 211.57 387.05 212.342 387.05 212.342C387.05 212.342 388.188 211.57 388.483 211.864C388.778 212.159 388.005 213.297 388.005 213.297C388.005 213.297 388.778 214.435 388.483 214.73C388.188 215.025 387.05 214.253 387.05 214.253C387.05 214.253 385.912 215.025 385.617 214.73C385.322 214.435 386.095 213.297 386.095 213.297C386.095 213.297 385.322 212.159 385.617 211.864Z" fill="#404759"/>
<path d="M341.976 140.073C342.271 139.778 343.409 140.551 343.409 140.551C343.409 140.551 344.547 139.778 344.842 140.073C345.137 140.368 344.364 141.506 344.364 141.506C344.364 141.506 345.137 142.644 344.842 142.939C344.547 143.234 343.409 142.461 343.409 142.461C343.409 142.461 342.271 143.234 341.976 142.939C341.681 142.644 342.454 141.506 342.454 141.506C342.454 141.506 341.681 140.368 341.976 140.073Z" fill="#2C3240"/>
<path d="M221.402 60.5388C221.697 60.2439 222.835 61.0165 222.835 61.0165C222.835 61.0165 223.973 60.2439 224.268 60.5388C224.563 60.8337 223.79 61.9717 223.79 61.9717C223.79 61.9717 224.563 63.1096 224.268 63.4046C223.973 63.6995 222.835 62.927 222.835 62.927C222.835 62.927 221.697 63.6995 221.402 63.4046C221.107 63.1096 221.88 61.9717 221.88 61.9717C221.88 61.9717 221.107 60.8337 221.402 60.5388Z" fill="#626B81"/>
<path d="M233.958 264.864C234.253 264.57 235.391 265.342 235.391 265.342C235.391 265.342 236.529 264.57 236.824 264.864C237.118 265.159 236.346 266.297 236.346 266.297C236.346 266.297 237.118 267.435 236.824 267.73C236.529 268.025 235.391 267.253 235.391 267.253C235.391 267.253 234.253 268.025 233.958 267.73C233.663 267.435 234.435 266.297 234.435 266.297C234.435 266.297 233.663 265.159 233.958 264.864Z" fill="#404759"/>
<path d="M301.211 49.7483C301.506 49.4533 302.644 50.2259 302.644 50.2259C302.644 50.2259 303.782 49.4533 304.076 49.7483C304.371 50.0432 303.599 51.1812 303.599 51.1812C303.599 51.1812 304.371 52.3191 304.076 52.614C303.782 52.909 302.644 52.1365 302.644 52.1365C302.644 52.1365 301.506 52.909 301.211 52.614C300.916 52.3191 301.688 51.1812 301.688 51.1812C301.688 51.1812 300.916 50.0432 301.211 49.7483Z" fill="#2C3240"/>
<path d="M130.904 18.1423C131.199 17.8474 132.337 18.62 132.337 18.62C132.337 18.62 133.475 17.8474 133.77 18.1423C134.065 18.4372 133.292 19.5752 133.292 19.5752C133.292 19.5752 134.065 20.7132 133.77 21.0081C133.475 21.303 132.337 20.5305 132.337 20.5305C132.337 20.5305 131.199 21.303 130.904 21.0081C130.609 20.7132 131.382 19.5752 131.382 19.5752C131.382 19.5752 130.609 18.4372 130.904 18.1423Z" fill="#626B81"/>
<path d="M31.3523 263.303C31.6472 263.009 32.7852 263.781 32.7852 263.781C32.7852 263.781 33.9231 263.009 34.218 263.303C34.513 263.598 33.7405 264.736 33.7405 264.736C33.7405 264.736 34.513 265.874 34.218 266.169C33.9231 266.464 32.7852 265.692 32.7852 265.692C32.7852 265.692 31.6472 266.464 31.3523 266.169C31.0574 265.874 31.83 264.736 31.83 264.736C31.83 264.736 31.0574 263.598 31.3523 263.303Z" fill="#404759"/>
<path d="M128.462 170.822C128.757 170.527 129.895 171.3 129.895 171.3C129.895 171.3 131.032 170.527 131.327 170.822C131.622 171.117 130.85 172.255 130.85 172.255C130.85 172.255 131.622 173.393 131.327 173.688C131.032 173.983 129.895 173.21 129.895 173.21C129.895 173.21 128.757 173.983 128.462 173.688C128.167 173.393 128.939 172.255 128.939 172.255C128.939 172.255 128.167 171.117 128.462 170.822Z" fill="#2C3240"/>
<path d="M280.243 267.067C280.538 266.772 281.676 267.545 281.676 267.545C281.676 267.545 282.814 266.772 283.109 267.067C283.404 267.362 282.631 268.5 282.631 268.5C282.631 268.5 283.404 269.638 283.109 269.933C282.814 270.228 281.676 269.455 281.676 269.455C281.676 269.455 280.538 270.228 280.243 269.933C279.948 269.638 280.721 268.5 280.721 268.5C280.721 268.5 279.948 267.362 280.243 267.067Z" fill="#626B81"/>
<path d="M427.971 263.786C428.266 263.491 429.404 264.264 429.404 264.264C429.404 264.264 430.542 263.491 430.837 263.786C431.132 264.081 430.36 265.219 430.36 265.219C430.36 265.219 431.132 266.357 430.837 266.652C430.542 266.947 429.404 266.174 429.404 266.174C429.404 266.174 428.266 266.947 427.971 266.652C427.676 266.357 428.449 265.219 428.449 265.219C428.449 265.219 427.676 264.081 427.971 263.786Z" fill="#404759"/>
<path d="M0.271219 9.25218C0.566141 8.95725 1.70415 9.72985 1.70415 9.72985C1.70415 9.72985 2.84206 8.95725 3.13698 9.25218C3.43191 9.5471 2.65941 10.6851 2.65941 10.6851C2.65941 10.6851 3.43191 11.823 3.13698 12.1179C2.84206 12.4129 1.70415 11.6404 1.70415 11.6404C1.70415 11.6404 0.566141 12.4129 0.271219 12.1179C-0.0237029 11.823 0.748895 10.6851 0.748895 10.6851C0.748895 10.6851 -0.0237028 9.5471 0.271219 9.25218Z" fill="#2C3240"/>
<path d="M21.1765 84.6033C21.4714 84.3083 22.6094 85.0809 22.6094 85.0809C22.6094 85.0809 23.7473 84.3083 24.0423 84.6033C24.3372 84.8982 23.5647 86.0362 23.5647 86.0362C23.5647 86.0362 24.3372 87.1741 24.0423 87.469C23.7473 87.7639 22.6094 86.9914 22.6094 86.9914C22.6094 86.9914 21.4714 87.7639 21.1765 87.469C20.8816 87.1741 21.6542 86.0362 21.6542 86.0362C21.6542 86.0362 20.8816 84.8982 21.1765 84.6033Z" fill="#626B81"/>
<path d="M389.021 28.3503C389.316 28.0554 390.454 28.828 390.454 28.828C390.454 28.828 391.592 28.0554 391.887 28.3503C392.182 28.6452 391.409 29.7833 391.409 29.7833C391.409 29.7833 392.182 30.9212 391.887 31.2161C391.592 31.511 390.454 30.7385 390.454 30.7385C390.454 30.7385 389.316 31.511 389.021 31.2161C388.726 30.9212 389.499 29.7833 389.499 29.7833C389.499 29.7833 388.726 28.6452 389.021 28.3503Z" fill="#404759"/>
<path d="M85.0622 26.6867C85.3572 26.3918 86.4952 27.1644 86.4952 27.1644C86.4952 27.1644 87.6331 26.3918 87.928 26.6867C88.2229 26.9817 87.4504 28.1197 87.4504 28.1197C87.4504 28.1197 88.2229 29.2576 87.928 29.5525C87.6331 29.8474 86.4952 29.0749 86.4952 29.0749C86.4952 29.0749 85.3572 29.8474 85.0622 29.5525C84.7673 29.2576 85.5399 28.1197 85.5399 28.1197C85.5399 28.1197 84.7673 26.9817 85.0622 26.6867Z" fill="#2C3240"/>
<path d="M263.137 185.492C263.432 185.197 264.57 185.97 264.57 185.97C264.57 185.97 265.708 185.197 266.003 185.492C266.298 185.787 265.526 186.925 265.526 186.925C265.526 186.925 266.298 188.063 266.003 188.358C265.708 188.653 264.57 187.881 264.57 187.881C264.57 187.881 263.432 188.653 263.137 188.358C262.843 188.063 263.615 186.925 263.615 186.925C263.615 186.925 262.843 185.787 263.137 185.492Z" fill="#626B81"/>
<path d="M273.161 266.019C273.456 265.724 274.594 266.496 274.594 266.496C274.594 266.496 275.732 265.724 276.027 266.019C276.322 266.314 275.549 267.452 275.549 267.452C275.549 267.452 276.322 268.59 276.027 268.885C275.732 269.179 274.594 268.407 274.594 268.407C274.594 268.407 273.456 269.179 273.161 268.885C272.866 268.59 273.639 267.452 273.639 267.452C273.639 267.452 272.866 266.314 273.161 266.019Z" fill="#404759"/>
<path d="M82.9909 156.391C83.2859 156.096 84.4239 156.869 84.4239 156.869C84.4239 156.869 85.5618 156.096 85.8567 156.391C86.1516 156.686 85.3791 157.824 85.3791 157.824C85.3791 157.824 86.1516 158.962 85.8567 159.257C85.5618 159.552 84.4239 158.779 84.4239 158.779C84.4239 158.779 83.2859 159.552 82.9909 159.257C82.696 158.962 83.4686 157.824 83.4686 157.824C83.4686 157.824 82.696 156.686 82.9909 156.391Z" fill="#2C3240"/>
<path d="M376.672 121.565C376.967 121.27 378.105 122.042 378.105 122.042C378.105 122.042 379.242 121.27 379.537 121.565C379.832 121.86 379.06 122.998 379.06 122.998C379.06 122.998 379.832 124.136 379.537 124.43C379.242 124.725 378.105 123.953 378.105 123.953C378.105 123.953 376.967 124.725 376.672 124.43C376.377 124.136 377.149 122.998 377.149 122.998C377.149 122.998 376.377 121.86 376.672 121.565Z" fill="#626B81"/>
<path d="M326.663 65.4016C326.958 65.1067 328.096 65.8793 328.096 65.8793C328.096 65.8793 329.234 65.1067 329.529 65.4016C329.824 65.6965 329.051 66.8345 329.051 66.8345C329.051 66.8345 329.824 67.9724 329.529 68.2674C329.234 68.5623 328.096 67.7898 328.096 67.7898C328.096 67.7898 326.958 68.5623 326.663 68.2674C326.368 67.9724 327.14 66.8345 327.14 66.8345C327.14 66.8345 326.368 65.6965 326.663 65.4016Z" fill="#404759"/>
<path d="M210.977 40.5622C211.272 40.2673 212.41 41.0399 212.41 41.0399C212.41 41.0399 213.548 40.2673 213.843 40.5622C214.138 40.8572 213.365 41.9952 213.365 41.9952C213.365 41.9952 214.138 43.1331 213.843 43.428C213.548 43.7229 212.41 42.9504 212.41 42.9504C212.41 42.9504 211.272 43.7229 210.977 43.428C210.682 43.1331 211.455 41.9952 211.455 41.9952C211.455 41.9952 210.682 40.8572 210.977 40.5622Z" fill="#2C3240"/>
<path d="M356.408 244.366C356.703 244.072 357.841 244.844 357.841 244.844C357.841 244.844 358.979 244.072 359.274 244.366C359.569 244.661 358.796 245.799 358.796 245.799C358.796 245.799 359.569 246.937 359.274 247.232C358.979 247.527 357.841 246.755 357.841 246.755C357.841 246.755 356.703 247.527 356.408 247.232C356.113 246.937 356.886 245.799 356.886 245.799C356.886 245.799 356.113 244.661 356.408 244.366Z" fill="#626B81"/>
<path d="M227.103 34.4284C227.398 34.1335 228.536 34.9061 228.536 34.9061C228.536 34.9061 229.674 34.1335 229.969 34.4284C230.264 34.7234 229.491 35.8614 229.491 35.8614C229.491 35.8614 230.264 36.9993 229.969 37.2942C229.674 37.5891 228.536 36.8166 228.536 36.8166C228.536 36.8166 227.398 37.5891 227.103 37.2942C226.808 36.9993 227.581 35.8614 227.581 35.8614C227.581 35.8614 226.808 34.7234 227.103 34.4284Z" fill="#404759"/>
<path d="M289.866 147.957C290.161 147.662 291.299 148.434 291.299 148.434C291.299 148.434 292.437 147.662 292.732 147.957C293.027 148.252 292.254 149.39 292.254 149.39C292.254 149.39 293.027 150.528 292.732 150.823C292.437 151.117 291.299 150.345 291.299 150.345C291.299 150.345 290.161 151.117 289.866 150.823C289.571 150.528 290.344 149.39 290.344 149.39C290.344 149.39 289.571 148.252 289.866 147.957Z" fill="#2C3240"/>
<path d="M331.723 57.5954C332.018 57.3005 333.156 58.0731 333.156 58.0731C333.156 58.0731 334.294 57.3005 334.589 57.5954C334.884 57.8904 334.112 59.0284 334.112 59.0284C334.112 59.0284 334.884 60.1663 334.589 60.4612C334.294 60.7561 333.156 59.9836 333.156 59.9836C333.156 59.9836 332.018 60.7561 331.723 60.4612C331.428 60.1663 332.201 59.0284 332.201 59.0284C332.201 59.0284 331.428 57.8904 331.723 57.5954Z" fill="#626B81"/>
<path d="M388.882 221.771C389.176 221.476 390.315 222.249 390.315 222.249C390.315 222.249 391.452 221.476 391.747 221.771C392.042 222.066 391.27 223.204 391.27 223.204C391.27 223.204 392.042 224.342 391.747 224.637C391.452 224.932 390.315 224.159 390.315 224.159C390.315 224.159 389.176 224.932 388.882 224.637C388.587 224.342 389.359 223.204 389.359 223.204C389.359 223.204 388.587 222.066 388.882 221.771Z" fill="#404759"/>
<path d="M445.718 236.663C446.012 236.368 447.15 237.141 447.15 237.141C447.15 237.141 448.288 236.368 448.583 236.663C448.878 236.958 448.106 238.096 448.106 238.096C448.106 238.096 448.878 239.234 448.583 239.529C448.288 239.824 447.15 239.051 447.15 239.051C447.15 239.051 446.012 239.824 445.718 239.529C445.423 239.234 446.195 238.096 446.195 238.096C446.195 238.096 445.423 236.958 445.718 236.663Z" fill="#2C3240"/>
<path d="M391.195 44.5657C391.49 44.2707 392.628 45.0433 392.628 45.0433C392.628 45.0433 393.766 44.2707 394.061 44.5657C394.356 44.8606 393.583 45.9986 393.583 45.9986C393.583 45.9986 394.356 47.1365 394.061 47.4314C393.766 47.7263 392.628 46.9538 392.628 46.9538C392.628 46.9538 391.49 47.7263 391.195 47.4314C390.9 47.1365 391.673 45.9986 391.673 45.9986C391.673 45.9986 390.9 44.8606 391.195 44.5657Z" fill="#626B81"/>
<path d="M80.6716 230.97C80.9665 230.675 82.1045 231.448 82.1045 231.448C82.1045 231.448 83.2425 230.675 83.5374 230.97C83.8323 231.265 83.0598 232.403 83.0598 232.403C83.0598 232.403 83.8323 233.541 83.5374 233.836C83.2425 234.131 82.1045 233.358 82.1045 233.358C82.1045 233.358 80.9665 234.131 80.6716 233.836C80.3767 233.541 81.1493 232.403 81.1493 232.403C81.1493 232.403 80.3767 231.265 80.6716 230.97Z" fill="#404759"/>
<path d="M179.39 24.8181C179.685 24.5232 180.823 25.2958 180.823 25.2958C180.823 25.2958 181.961 24.5232 182.256 24.8181C182.551 25.113 181.779 26.251 181.779 26.251C181.779 26.251 182.551 27.3889 182.256 27.6839C181.961 27.9788 180.823 27.2063 180.823 27.2063C180.823 27.2063 179.685 27.9788 179.39 27.6839C179.095 27.3889 179.868 26.251 179.868 26.251C179.868 26.251 179.095 25.113 179.39 24.8181Z" fill="#2C3240"/>
<path d="M246.199 196.965C246.494 196.67 247.632 197.443 247.632 197.443C247.632 197.443 248.77 196.67 249.065 196.965C249.36 197.26 248.587 198.398 248.587 198.398C248.587 198.398 249.36 199.536 249.065 199.831C248.77 200.126 247.632 199.353 247.632 199.353C247.632 199.353 246.494 200.126 246.199 199.831C245.904 199.536 246.677 198.398 246.677 198.398C246.677 198.398 245.904 197.26 246.199 196.965Z" fill="#626B81"/>
<path d="M367.317 147.674C367.612 147.379 368.75 148.151 368.75 148.151C368.75 148.151 369.888 147.379 370.183 147.674C370.478 147.968 369.705 149.106 369.705 149.106C369.705 149.106 370.478 150.244 370.183 150.539C369.888 150.834 368.75 150.062 368.75 150.062C368.75 150.062 367.612 150.834 367.317 150.539C367.022 150.244 367.795 149.106 367.795 149.106C367.795 149.106 367.022 147.968 367.317 147.674Z" fill="#404759"/>
<path d="M238.547 260.477C238.842 260.182 239.98 260.954 239.98 260.954C239.98 260.954 241.117 260.182 241.412 260.477C241.707 260.772 240.935 261.91 240.935 261.91C240.935 261.91 241.707 263.048 241.412 263.343C241.117 263.637 239.98 262.865 239.98 262.865C239.98 262.865 238.842 263.637 238.547 263.343C238.252 263.048 239.024 261.91 239.024 261.91C239.024 261.91 238.252 260.772 238.547 260.477Z" fill="#2C3240"/>
<path d="M194.646 254.146C194.941 253.851 196.079 254.624 196.079 254.624C196.079 254.624 197.217 253.851 197.512 254.146C197.807 254.441 197.034 255.579 197.034 255.579C197.034 255.579 197.807 256.717 197.512 257.012C197.217 257.307 196.079 256.534 196.079 256.534C196.079 256.534 194.941 257.307 194.646 257.012C194.351 256.717 195.124 255.579 195.124 255.579C195.124 255.579 194.351 254.441 194.646 254.146Z" fill="#626B81"/>
<path d="M354.65 16.5012C354.945 16.2063 356.083 16.9789 356.083 16.9789C356.083 16.9789 357.221 16.2063 357.516 16.5012C357.811 16.7961 357.038 17.9341 357.038 17.9341C357.038 17.9341 357.811 19.072 357.516 19.367C357.221 19.6619 356.083 18.8894 356.083 18.8894C356.083 18.8894 354.945 19.6619 354.65 19.367C354.355 19.072 355.128 17.9341 355.128 17.9341C355.128 17.9341 354.355 16.7961 354.65 16.5012Z" fill="#404759"/>
<path d="M72.6238 70.0691C72.9187 69.7741 74.0567 70.5467 74.0567 70.5467C74.0567 70.5467 75.1946 69.7741 75.4895 70.0691C75.7844 70.364 75.0119 71.502 75.0119 71.502C75.0119 71.502 75.7844 72.6399 75.4895 72.9348C75.1946 73.2298 74.0567 72.4573 74.0567 72.4573C74.0567 72.4573 72.9187 73.2298 72.6238 72.9348C72.3288 72.6399 73.1014 71.502 73.1014 71.502C73.1014 71.502 72.3288 70.364 72.6238 70.0691Z" fill="#2C3240"/>
<path d="M279.159 68.571C279.454 68.2761 280.592 69.0487 280.592 69.0487C280.592 69.0487 281.73 68.2761 282.025 68.571C282.32 68.8659 281.547 70.004 281.547 70.004C281.547 70.004 282.32 71.1419 282.025 71.4368C281.73 71.7317 280.592 70.9592 280.592 70.9592C280.592 70.9592 279.454 71.7317 279.159 71.4368C278.864 71.1419 279.637 70.004 279.637 70.004C279.637 70.004 278.864 68.8659 279.159 68.571Z" fill="#626B81"/>
<path d="M112.437 5.66282C112.732 5.3679 113.87 6.1405 113.87 6.1405C113.87 6.1405 115.008 5.3679 115.303 5.66282C115.598 5.95774 114.825 7.09575 114.825 7.09575C114.825 7.09575 115.598 8.23366 115.303 8.52859C115.008 8.82351 113.87 8.05101 113.87 8.05101C113.87 8.05101 112.732 8.82351 112.437 8.52859C112.142 8.23366 112.915 7.09575 112.915 7.09575C112.915 7.09575 112.142 5.95774 112.437 5.66282Z" fill="#404759"/>
<path d="M118.846 252.875C119.141 252.58 120.279 253.353 120.279 253.353C120.279 253.353 121.417 252.58 121.712 252.875C122.007 253.17 121.235 254.308 121.235 254.308C121.235 254.308 122.007 255.446 121.712 255.741C121.417 256.036 120.279 255.263 120.279 255.263C120.279 255.263 119.141 256.036 118.846 255.741C118.551 255.446 119.324 254.308 119.324 254.308C119.324 254.308 118.551 253.17 118.846 252.875Z" fill="#2C3240"/>
<path d="M391.151 130.285C391.446 129.99 392.584 130.763 392.584 130.763C392.584 130.763 393.722 129.99 394.017 130.285C394.312 130.58 393.539 131.718 393.539 131.718C393.539 131.718 394.312 132.856 394.017 133.151C393.722 133.446 392.584 132.673 392.584 132.673C392.584 132.673 391.446 133.446 391.151 133.151C390.856 132.856 391.629 131.718 391.629 131.718C391.629 131.718 390.856 130.58 391.151 130.285Z" fill="#626B81"/>
<path d="M385.488 24.6677C385.783 24.3728 386.921 25.1454 386.921 25.1454C386.921 25.1454 388.059 24.3728 388.354 24.6677C388.649 24.9626 387.876 26.1006 387.876 26.1006C387.876 26.1006 388.649 27.2385 388.354 27.5335C388.059 27.8284 386.921 27.0559 386.921 27.0559C386.921 27.0559 385.783 27.8284 385.488 27.5335C385.193 27.2385 385.966 26.1006 385.966 26.1006C385.966 26.1006 385.193 24.9626 385.488 24.6677Z" fill="#404759"/>
<path d="M279.067 108.067C279.362 107.772 280.5 108.545 280.5 108.545C280.5 108.545 281.638 107.772 281.933 108.067C282.228 108.362 281.455 109.5 281.455 109.5C281.455 109.5 282.228 110.638 281.933 110.933C281.638 111.228 280.5 110.455 280.5 110.455C280.5 110.455 279.362 111.228 279.067 110.933C278.772 110.638 279.545 109.5 279.545 109.5C279.545 109.5 278.772 108.362 279.067 108.067Z" fill="#2C3240"/>
<path d="M133.198 187.575C133.493 187.28 134.631 188.053 134.631 188.053C134.631 188.053 135.769 187.28 136.064 187.575C136.359 187.87 135.586 189.008 135.586 189.008C135.586 189.008 136.359 190.146 136.064 190.441C135.769 190.736 134.631 189.964 134.631 189.964C134.631 189.964 133.493 190.736 133.198 190.441C132.903 190.146 133.676 189.008 133.676 189.008C133.676 189.008 132.903 187.87 133.198 187.575Z" fill="#626B81"/>
<path d="M314.428 16.8816C314.723 16.5866 315.861 17.3592 315.861 17.3592C315.861 17.3592 316.999 16.5866 317.294 16.8816C317.589 17.1765 316.817 18.3145 316.817 18.3145C316.817 18.3145 317.589 19.4524 317.294 19.7473C316.999 20.0423 315.861 19.2698 315.861 19.2698C315.861 19.2698 314.723 20.0423 314.428 19.7473C314.134 19.4524 314.906 18.3145 314.906 18.3145C314.906 18.3145 314.134 17.1765 314.428 16.8816Z" fill="#404759"/>
<path d="M13.6208 18.969C13.9158 18.6741 15.0538 19.4466 15.0538 19.4466C15.0538 19.4466 16.1917 18.6741 16.4866 18.969C16.7815 19.2639 16.009 20.4019 16.009 20.4019C16.009 20.4019 16.7815 21.5398 16.4866 21.8347C16.1917 22.1297 15.0538 21.3572 15.0538 21.3572C15.0538 21.3572 13.9158 22.1297 13.6208 21.8347C13.3259 21.5398 14.0985 20.4019 14.0985 20.4019C14.0985 20.4019 13.3259 19.2639 13.6208 18.969Z" fill="#2C3240"/>
<path d="M74.4841 160.074C74.779 159.78 75.917 160.552 75.917 160.552C75.917 160.552 77.055 159.78 77.3499 160.074C77.6448 160.369 76.8723 161.507 76.8723 161.507C76.8723 161.507 77.6448 162.645 77.3499 162.94C77.055 163.235 75.917 162.463 75.917 162.463C75.917 162.463 74.779 163.235 74.4841 162.94C74.1892 162.645 74.9618 161.507 74.9618 161.507C74.9618 161.507 74.1892 160.369 74.4841 160.074Z" fill="#626B81"/>
<path d="M193.909 83.1921C194.204 82.8972 195.342 83.6698 195.342 83.6698C195.342 83.6698 196.48 82.8972 196.775 83.1921C197.07 83.487 196.297 84.625 196.297 84.625C196.297 84.625 197.07 85.763 196.775 86.0579C196.48 86.3528 195.342 85.5803 195.342 85.5803C195.342 85.5803 194.204 86.3528 193.909 86.0579C193.614 85.763 194.387 84.625 194.387 84.625C194.387 84.625 193.614 83.487 193.909 83.1921Z" fill="#404759"/>
<path d="M395.866 74.446C396.161 74.1511 397.299 74.9237 397.299 74.9237C397.299 74.9237 398.437 74.1511 398.732 74.446C399.027 74.7409 398.254 75.879 398.254 75.879C398.254 75.879 399.027 77.0169 398.732 77.3118C398.437 77.6067 397.299 76.8342 397.299 76.8342C397.299 76.8342 396.161 77.6067 395.866 77.3118C395.571 77.0169 396.344 75.879 396.344 75.879C396.344 75.879 395.571 74.7409 395.866 74.446Z" fill="#2C3240"/>
<path d="M423.157 145.283C423.452 144.988 424.59 145.761 424.59 145.761C424.59 145.761 425.728 144.988 426.023 145.283C426.318 145.578 425.545 146.716 425.545 146.716C425.545 146.716 426.318 147.854 426.023 148.149C425.728 148.444 424.59 147.671 424.59 147.671C424.59 147.671 423.452 148.444 423.157 148.149C422.862 147.854 423.635 146.716 423.635 146.716C423.635 146.716 422.862 145.578 423.157 145.283Z" fill="#626B81"/>
<path d="M224.684 159.588C224.979 159.293 226.117 160.065 226.117 160.065C226.117 160.065 227.255 159.293 227.55 159.588C227.845 159.883 227.072 161.021 227.072 161.021C227.072 161.021 227.845 162.158 227.55 162.453C227.255 162.748 226.117 161.976 226.117 161.976C226.117 161.976 224.979 162.748 224.684 162.453C224.389 162.158 225.162 161.021 225.162 161.021C225.162 161.021 224.389 159.883 224.684 159.588Z" fill="#404759"/>
<path d="M324.335 174.689C324.63 174.394 325.768 175.166 325.768 175.166C325.768 175.166 326.906 174.394 327.2 174.689C327.495 174.984 326.723 176.122 326.723 176.122C326.723 176.122 327.495 177.26 327.2 177.554C326.906 177.849 325.768 177.077 325.768 177.077C325.768 177.077 324.63 177.849 324.335 177.554C324.04 177.26 324.812 176.122 324.812 176.122C324.812 176.122 324.04 174.984 324.335 174.689Z" fill="#2C3240"/>
<path d="M270.785 92.6863C271.08 92.3913 272.218 93.1639 272.218 93.1639C272.218 93.1639 273.356 92.3913 273.651 92.6863C273.946 92.9812 273.173 94.1192 273.173 94.1192C273.173 94.1192 273.946 95.2571 273.651 95.552C273.356 95.8469 272.218 95.0744 272.218 95.0744C272.218 95.0744 271.08 95.8469 270.785 95.552C270.49 95.2571 271.263 94.1192 271.263 94.1192C271.263 94.1192 270.49 92.9812 270.785 92.6863Z" fill="#626B81"/>
<path d="M7.86595 140.714C8.16087 140.419 9.29888 141.191 9.29888 141.191C9.29888 141.191 10.4368 140.419 10.7317 140.714C11.0266 141.009 10.2541 142.147 10.2541 142.147C10.2541 142.147 11.0266 143.284 10.7317 143.579C10.4368 143.874 9.29888 143.102 9.29888 143.102C9.29888 143.102 8.16087 143.874 7.86595 143.579C7.57102 143.284 8.34362 142.147 8.34362 142.147C8.34362 142.147 7.57102 141.009 7.86595 140.714Z" fill="#404759"/>
<path d="M89.9568 237.524C90.2517 237.229 91.3897 238.002 91.3897 238.002C91.3897 238.002 92.5276 237.229 92.8225 237.524C93.1175 237.819 92.345 238.957 92.345 238.957C92.345 238.957 93.1175 240.095 92.8225 240.39C92.5276 240.685 91.3897 239.912 91.3897 239.912C91.3897 239.912 90.2517 240.685 89.9568 240.39C89.6618 240.095 90.4344 238.957 90.4344 238.957C90.4344 238.957 89.6618 237.819 89.9568 237.524Z" fill="#2C3240"/>
<path d="M158.234 176.135C158.529 175.84 159.667 176.612 159.667 176.612C159.667 176.612 160.805 175.84 161.1 176.135C161.395 176.429 160.622 177.567 160.622 177.567C160.622 177.567 161.395 178.705 161.1 179C160.805 179.295 159.667 178.523 159.667 178.523C159.667 178.523 158.529 179.295 158.234 179C157.939 178.705 158.712 177.567 158.712 177.567C158.712 177.567 157.939 176.429 158.234 176.135Z" fill="#626B81"/>
<path d="M333.88 104.175C334.175 103.88 335.313 104.652 335.313 104.652C335.313 104.652 336.45 103.88 336.745 104.175C337.04 104.469 336.268 105.607 336.268 105.607C336.268 105.607 337.04 106.745 336.745 107.04C336.45 107.335 335.313 106.563 335.313 106.563C335.313 106.563 334.175 107.335 333.88 107.04C333.585 106.745 334.357 105.607 334.357 105.607C334.357 105.607 333.585 104.469 333.88 104.175Z" fill="#404759"/>
<path d="M147.01 216.076C147.304 215.781 148.442 216.554 148.442 216.554C148.442 216.554 149.58 215.781 149.875 216.076C150.17 216.371 149.398 217.509 149.398 217.509C149.398 217.509 150.17 218.647 149.875 218.942C149.58 219.237 148.442 218.465 148.442 218.465C148.442 218.465 147.304 219.237 147.01 218.942C146.715 218.647 147.487 217.509 147.487 217.509C147.487 217.509 146.715 216.371 147.01 216.076Z" fill="#2C3240"/>
<path d="M434.449 182.466C434.744 182.171 435.882 182.944 435.882 182.944C435.882 182.944 437.02 182.171 437.315 182.466C437.61 182.761 436.837 183.899 436.837 183.899C436.837 183.899 437.61 185.037 437.315 185.332C437.02 185.627 435.882 184.854 435.882 184.854C435.882 184.854 434.744 185.627 434.449 185.332C434.154 185.037 434.927 183.899 434.927 183.899C434.927 183.899 434.154 182.761 434.449 182.466Z" fill="#626B81"/>
<path d="M355.452 80.9001C355.747 80.6052 356.885 81.3778 356.885 81.3778C356.885 81.3778 358.023 80.6052 358.318 80.9001C358.613 81.195 357.84 82.3331 357.84 82.3331C357.84 82.3331 358.613 83.471 358.318 83.7659C358.023 84.0608 356.885 83.2883 356.885 83.2883C356.885 83.2883 355.747 84.0608 355.452 83.7659C355.157 83.471 355.93 82.3331 355.93 82.3331C355.93 82.3331 355.157 81.195 355.452 80.9001Z" fill="#404759"/>
<path d="M43.0378 266.79C43.3327 266.495 44.4708 267.268 44.4708 267.268C44.4708 267.268 45.6087 266.495 45.9036 266.79C46.1985 267.085 45.426 268.223 45.426 268.223C45.426 268.223 46.1985 269.361 45.9036 269.656C45.6087 269.951 44.4708 269.178 44.4708 269.178C44.4708 269.178 43.3327 269.951 43.0378 269.656C42.7429 269.361 43.5155 268.223 43.5155 268.223C43.5155 268.223 42.7429 267.085 43.0378 266.79Z" fill="#2C3240"/>
<path d="M17.2439 216.927C17.5388 216.632 18.6768 217.405 18.6768 217.405C18.6768 217.405 19.8147 216.632 20.1096 216.927C20.4046 217.222 19.6321 218.36 19.6321 218.36C19.6321 218.36 20.4046 219.498 20.1096 219.793C19.8147 220.088 18.6768 219.315 18.6768 219.315C18.6768 219.315 17.5388 220.088 17.2439 219.793C16.949 219.498 17.7216 218.36 17.7216 218.36C17.7216 218.36 16.949 217.222 17.2439 216.927Z" fill="#626B81"/>
<path d="M303.425 38.3679C303.719 38.073 304.857 38.8456 304.857 38.8456C304.857 38.8456 305.995 38.073 306.29 38.3679C306.585 38.6628 305.813 39.8008 305.813 39.8008C305.813 39.8008 306.585 40.9387 306.29 41.2337C305.995 41.5286 304.857 40.7561 304.857 40.7561C304.857 40.7561 303.719 41.5286 303.425 41.2337C303.13 40.9387 303.902 39.8008 303.902 39.8008C303.902 39.8008 303.13 38.6628 303.425 38.3679Z" fill="#404759"/>
<path d="M464.349 65.0823C464.644 64.7873 465.782 65.5599 465.782 65.5599C465.782 65.5599 466.92 64.7873 467.215 65.0823C467.51 65.3772 466.738 66.5152 466.738 66.5152C466.738 66.5152 467.51 67.6531 467.215 67.948C466.92 68.2429 465.782 67.4704 465.782 67.4704C465.782 67.4704 464.644 68.2429 464.349 67.948C464.054 67.6531 464.827 66.5152 464.827 66.5152C464.827 66.5152 464.054 65.3772 464.349 65.0823Z" fill="#2C3240"/>
<path d="M454.911 227.405C455.206 227.111 456.344 227.883 456.344 227.883C456.344 227.883 457.482 227.111 457.777 227.405C458.072 227.7 457.299 228.838 457.299 228.838C457.299 228.838 458.072 229.976 457.777 230.271C457.482 230.566 456.344 229.794 456.344 229.794C456.344 229.794 455.206 230.566 454.911 230.271C454.616 229.976 455.389 228.838 455.389 228.838C455.389 228.838 454.616 227.7 454.911 227.405Z" fill="#626B81"/>
<path d="M250.678 118.78C250.973 118.485 252.111 119.258 252.111 119.258C252.111 119.258 253.249 118.485 253.544 118.78C253.839 119.075 253.067 120.213 253.067 120.213C253.067 120.213 253.839 121.351 253.544 121.646C253.249 121.941 252.111 121.168 252.111 121.168C252.111 121.168 250.973 121.941 250.678 121.646C250.384 121.351 251.156 120.213 251.156 120.213C251.156 120.213 250.384 119.075 250.678 118.78Z" fill="#404759"/>
<path d="M408.332 80.6418C408.627 80.3469 409.765 81.1195 409.765 81.1195C409.765 81.1195 410.903 80.3469 411.198 80.6418C411.492 80.9367 410.72 82.0748 410.72 82.0748C410.72 82.0748 411.492 83.2127 411.198 83.5076C410.903 83.8025 409.765 83.03 409.765 83.03C409.765 83.03 408.627 83.8025 408.332 83.5076C408.037 83.2127 408.809 82.0748 408.809 82.0748C408.809 82.0748 408.037 80.9367 408.332 80.6418Z" fill="#2C3240"/>
<path d="M138.654 168.437C138.949 168.142 140.087 168.915 140.087 168.915C140.087 168.915 141.225 168.142 141.52 168.437C141.815 168.732 141.042 169.87 141.042 169.87C141.042 169.87 141.815 171.008 141.52 171.303C141.225 171.598 140.087 170.825 140.087 170.825C140.087 170.825 138.949 171.598 138.654 171.303C138.359 171.008 139.132 169.87 139.132 169.87C139.132 169.87 138.359 168.732 138.654 168.437Z" fill="#626B81"/>
<path d="M192.135 32.9206C192.43 32.6257 193.568 33.3983 193.568 33.3983C193.568 33.3983 194.706 32.6257 195.001 32.9206C195.296 33.2156 194.524 34.3536 194.524 34.3536C194.524 34.3536 195.296 35.4915 195.001 35.7864C194.706 36.0813 193.568 35.3088 193.568 35.3088C193.568 35.3088 192.43 36.0813 192.135 35.7864C191.841 35.4915 192.613 34.3536 192.613 34.3536C192.613 34.3536 191.841 33.2156 192.135 32.9206Z" fill="#404759"/>
<path d="M310.13 161.307C310.425 161.012 311.563 161.785 311.563 161.785C311.563 161.785 312.7 161.012 312.995 161.307C313.29 161.602 312.518 162.74 312.518 162.74C312.518 162.74 313.29 163.878 312.995 164.173C312.7 164.468 311.563 163.695 311.563 163.695C311.563 163.695 310.425 164.468 310.13 164.173C309.835 163.878 310.607 162.74 310.607 162.74C310.607 162.74 309.835 161.602 310.13 161.307Z" fill="#2C3240"/>
<path d="M339.945 183.686C340.24 183.391 341.378 184.164 341.378 184.164C341.378 184.164 342.516 183.391 342.811 183.686C343.106 183.981 342.333 185.119 342.333 185.119C342.333 185.119 343.106 186.257 342.811 186.552C342.516 186.847 341.378 186.074 341.378 186.074C341.378 186.074 340.24 186.847 339.945 186.552C339.65 186.257 340.423 185.119 340.423 185.119C340.423 185.119 339.65 183.981 339.945 183.686Z" fill="#626B81"/>
<path d="M216.1 40.3254C216.395 40.0305 217.533 40.8031 217.533 40.8031C217.533 40.8031 218.671 40.0305 218.966 40.3254C219.261 40.6203 218.489 41.7583 218.489 41.7583C218.489 41.7583 219.261 42.8963 218.966 43.1912C218.671 43.4861 217.533 42.7136 217.533 42.7136C217.533 42.7136 216.395 43.4861 216.1 43.1912C215.805 42.8963 216.578 41.7583 216.578 41.7583C216.578 41.7583 215.805 40.6203 216.1 40.3254Z" fill="#404759"/>
<path d="M427.745 34.591C428.04 34.2961 429.178 35.0687 429.178 35.0687C429.178 35.0687 430.316 34.2961 430.611 34.591C430.906 34.886 430.133 36.024 430.133 36.024C430.133 36.024 430.906 37.1619 430.611 37.4568C430.316 37.7517 429.178 36.9792 429.178 36.9792C429.178 36.9792 428.04 37.7517 427.745 37.4568C427.45 37.1619 428.223 36.024 428.223 36.024C428.223 36.024 427.45 34.886 427.745 34.591Z" fill="#2C3240"/>
</g>
<g filter="url(#filter1_f_2000_674)">
<path d="M117 155L141 107H165L141 155H117Z" fill="#FF002E"/>
</g>
<g filter="url(#filter2_f_2000_674)">
<path d="M141 155L165 107H189L165 155H141Z" fill="#70FF00"/>
</g>
<g filter="url(#filter3_f_2000_674)">
<path d="M165 155L189 107H213L189 155H165Z" fill="#0066FF"/>
</g>
<path d="M117 155L141 107H165L141 155H117Z" fill="#FF002E"/>
<path d="M141 155L165 107H189L165 155H141Z" fill="#70FF00"/>
<path d="M165 155L189 107H213L189 155H165Z" fill="#0066FF"/>
<path d="M362.824 112.21H363.64V118.883H362.536C360.744 118.883 359.176 119.203 357.833 119.844V140.68H350.585V112.354H357.401V114.274C359.032 113.282 360.168 112.69 360.808 112.498C361.48 112.306 362.152 112.21 362.824 112.21Z" fill="white"/>
<path d="M339.631 119.843C339.631 118.627 338.959 118.019 337.616 118.019C336.272 118.019 335.6 118.627 335.6 119.843V133.19C335.6 134.406 336.272 135.014 337.616 135.014C338.959 135.014 339.631 134.406 339.631 133.19V119.843ZM328.496 119.603C328.496 117.171 329.248 115.282 330.752 113.938C332.288 112.562 334.576 111.874 337.616 111.874C340.655 111.874 342.927 112.562 344.431 113.938C345.967 115.282 346.735 117.171 346.735 119.603V133.43C346.735 135.863 345.967 137.767 344.431 139.143C342.927 140.488 340.655 141.16 337.616 141.16C334.576 141.16 332.288 140.488 330.752 139.143C329.248 137.767 328.496 135.863 328.496 133.43V119.603Z" fill="white"/>
<path d="M317.399 104.816H324.647V140.68H317.399V104.816Z" fill="white"/>
<path d="M306.446 119.843C306.446 118.627 305.774 118.019 304.43 118.019C303.086 118.019 302.414 118.627 302.414 119.843V133.19C302.414 134.406 303.086 135.014 304.43 135.014C305.774 135.014 306.446 134.406 306.446 133.19V119.843ZM295.311 119.603C295.311 117.171 296.062 115.282 297.566 113.938C299.102 112.562 301.39 111.874 304.43 111.874C307.47 111.874 309.742 112.562 311.246 113.938C312.782 115.282 313.549 117.171 313.549 119.603V133.43C313.549 135.863 312.782 137.767 311.246 139.143C309.742 140.488 307.47 141.16 304.43 141.16C301.39 141.16 299.102 140.488 297.566 139.143C296.062 137.767 295.311 135.863 295.311 133.43V119.603Z" fill="white"/>
<path d="M277.265 120.468C277.265 114.899 280.4 112.114 286.672 112.114C288.912 112.114 290.912 112.354 292.672 112.834V119.508C290.976 118.996 289.456 118.74 288.112 118.74C286.8 118.74 285.872 118.916 285.328 119.268C284.784 119.588 284.512 120.196 284.512 121.092V131.942C284.512 132.839 284.784 133.463 285.328 133.815C285.872 134.135 286.8 134.295 288.112 134.295C289.456 134.295 290.976 134.039 292.672 133.527V140.2C290.912 140.68 288.912 140.92 286.672 140.92C280.4 140.92 277.265 138.136 277.265 132.567V120.468Z" fill="white"/>
<path d="M269.767 111.538C267.111 111.538 265.783 110.289 265.783 107.793C265.783 105.264 267.111 104 269.767 104C272.455 104 273.799 105.264 273.799 107.793C273.799 110.289 272.455 111.538 269.767 111.538ZM266.167 113.122H273.415V140.68H266.167V113.122Z" fill="white"/>
<path d="M262.939 112.21H263.755V118.883H262.652C260.86 118.883 259.292 119.203 257.948 119.844V140.68H250.7V112.354H257.516V114.274C259.148 113.282 260.284 112.69 260.924 112.498C261.596 112.306 262.268 112.21 262.939 112.21Z" fill="white"/>
<path d="M248.295 107.409V113.65H242.295V140.68H235V113.65H229V107.409H248.295Z" fill="white"/>
<path d="M229.32 149.504C229.32 148.651 229.608 147.995 230.184 147.536C230.76 147.067 231.587 146.832 232.664 146.832C233.752 146.832 234.563 146.944 235.096 147.168V149.472C234.445 149.195 233.704 149.056 232.872 149.056C232.445 149.056 232.157 149.125 232.008 149.264C231.859 149.392 231.784 149.579 231.784 149.824V150.064C231.784 150.363 231.832 150.587 231.928 150.736C232.035 150.875 232.259 151.035 232.6 151.216L234.424 152.24C235.299 152.72 235.736 153.44 235.736 154.4V155.392C235.736 156.256 235.416 156.923 234.776 157.392C234.136 157.851 233.235 158.08 232.072 158.08C230.92 158.08 230.051 157.957 229.464 157.712V155.392C230.189 155.701 231.011 155.856 231.928 155.856C232.845 155.856 233.304 155.595 233.304 155.072V154.832C233.304 154.587 233.251 154.405 233.144 154.288C233.048 154.16 232.861 154.021 232.584 153.872L230.872 152.944C229.837 152.368 229.32 151.557 229.32 150.512V149.504ZM244.303 151.056C244.303 150.651 244.079 150.448 243.631 150.448C243.183 150.448 242.959 150.651 242.959 151.056V155.504C242.959 155.909 243.183 156.112 243.631 156.112C244.079 156.112 244.303 155.909 244.303 155.504V151.056ZM240.591 150.976C240.591 150.165 240.842 149.536 241.343 149.088C241.855 148.629 242.618 148.4 243.631 148.4C244.645 148.4 245.402 148.629 245.903 149.088C246.415 149.536 246.671 150.165 246.671 150.976V155.584C246.671 156.395 246.415 157.029 245.903 157.488C245.402 157.936 244.645 158.16 243.631 158.16C242.618 158.16 241.855 157.936 241.343 157.488C240.842 157.029 240.591 156.395 240.591 155.584V150.976ZM252.226 148.448C252.226 146.645 253.176 145.744 255.074 145.744C255.32 145.744 255.613 145.771 255.954 145.824V147.68C255.784 147.659 255.624 147.648 255.474 147.648C254.93 147.648 254.658 147.904 254.658 148.416V148.56H255.954V150.448H254.658V158H252.226V150.448H251.314V148.56H252.226V148.448ZM263.905 155.968C264.236 155.968 264.54 155.893 264.817 155.744V157.888C264.454 158.059 263.98 158.144 263.393 158.144C262.486 158.144 261.841 157.931 261.457 157.504C261.073 157.077 260.881 156.459 260.881 155.648V150.592H260.033V148.56H260.993L261.729 146.928H263.297V148.56H264.721V150.592H263.297V155.392C263.297 155.776 263.5 155.968 263.905 155.968ZM276.519 148.56H278.967L277.51 158H274.807L274.439 154.624L274.103 151.824L273.367 158H270.679L269.143 148.56H271.655L272.151 154.88L272.983 148.56H275.175L276.055 154.912L276.519 148.56ZM285.719 155.264V155.712C285.719 156.075 285.906 156.256 286.279 156.256C286.599 156.256 286.866 156.197 287.079 156.08V154.144L286.343 154.336C286.076 154.411 285.906 154.507 285.831 154.624C285.756 154.741 285.719 154.955 285.719 155.264ZM283.847 148.784C284.434 148.581 285.271 148.48 286.359 148.48C287.447 148.48 288.226 148.72 288.695 149.2C289.164 149.669 289.399 150.384 289.399 151.344V158H287.143V157.312C286.834 157.792 286.295 158.032 285.527 158.032C284.759 158.032 284.204 157.851 283.863 157.488C283.522 157.115 283.351 156.523 283.351 155.712V155.168C283.351 154.453 283.506 153.904 283.815 153.52C284.135 153.136 284.647 152.848 285.351 152.656L287.095 152.208V151.328C287.084 151.051 287.004 150.859 286.855 150.752C286.706 150.635 286.434 150.576 286.039 150.576C285.154 150.576 284.423 150.688 283.847 150.912V148.784ZM298.831 148.512H299.103V150.736H298.735C298.138 150.736 297.615 150.843 297.167 151.056V158H294.751V148.56H297.023V149.2C297.567 148.869 297.946 148.672 298.159 148.608C298.383 148.544 298.607 148.512 298.831 148.512ZM303.748 155.312V150.976C303.748 150.165 303.998 149.536 304.5 149.088C305.001 148.629 305.758 148.4 306.772 148.4C308.724 148.4 309.7 149.259 309.7 150.976V154.224H306.068V155.12C306.068 155.44 306.153 155.669 306.324 155.808C306.505 155.936 306.894 156 307.492 156C308.1 156 308.761 155.893 309.476 155.68V157.792C308.729 157.995 307.929 158.096 307.076 158.096C304.857 158.096 303.748 157.168 303.748 155.312ZM306.068 152.384H307.476V151.008C307.476 150.603 307.241 150.4 306.772 150.4C306.302 150.4 306.068 150.603 306.068 151.008V152.384Z" fill="#858A96"/>
</g>
<defs>
<filter id="filter0_n_2000_674" x="0" y="0" width="480" height="270" filterUnits="userSpaceOnUse" color-interpolation-filters="sRGB">
<feFlood flood-opacity="0" result="BackgroundImageFix"/>
<feBlend mode="normal" in="SourceGraphic" in2="BackgroundImageFix" result="shape"/>
<feTurbulence type="fractalNoise" baseFrequency="2 2" stitchTiles="stitch" numOctaves="3" result="noise" seed="1386" />
<feColorMatrix in="noise" type="luminanceToAlpha" result="alphaNoise" />
<feComponentTransfer in="alphaNoise" result="coloredNoise1">
<feFuncA type="discrete" tableValues="0 0 0 0 0 0 0 0 0 0 0 0 1 1 1 1 1 1 1 1 1 1 1 1 1 1 1 1 1 1 1 1 1 1 1 1 1 1 0 0 0 0 0 0 0 0 0 0 0 0 0 0 0 0 0 0 0 0 0 0 0 0 0 0 0 0 0 0 0 0 0 0 0 0 0 0 0 0 0 0 0 0 0 0 0 0 0 0 0 0 0 0 0 0 0 0 0 0 0 0 "/>
</feComponentTransfer>
<feComposite operator="in" in2="shape" in="coloredNoise1" result="noise1Clipped" />
<feFlood flood-color="rgba(131, 131, 131, 0.25)" result="color1Flood" />
<feComposite operator="in" in2="noise1Clipped" in="color1Flood" result="color1" />
<feMerge result="effect1_noise_2000_674">
<feMergeNode in="shape" />
<feMergeNode in="color1" />
</feMerge>
</filter>
<filter id="filter1_f_2000_674" x="109" y="99" width="64" height="64" filterUnits="userSpaceOnUse" color-interpolation-filters="sRGB">
<feFlood flood-opacity="0" result="BackgroundImageFix"/>
<feBlend mode="normal" in="SourceGraphic" in2="BackgroundImageFix" result="shape"/>
<feGaussianBlur stdDeviation="4" result="effect1_foregroundBlur_2000_674"/>
</filter>
<filter id="filter2_f_2000_674" x="133" y="99" width="64" height="64" filterUnits="userSpaceOnUse" color-interpolation-filters="sRGB">
<feFlood flood-opacity="0" result="BackgroundImageFix"/>
<feBlend mode="normal" in="SourceGraphic" in2="BackgroundImageFix" result="shape"/>
<feGaussianBlur stdDeviation="4" result="effect1_foregroundBlur_2000_674"/>
</filter>
<filter id="filter3_f_2000_674" x="157" y="99" width="64" height="64" filterUnits="userSpaceOnUse" color-interpolation-filters="sRGB">
<feFlood flood-opacity="0" result="BackgroundImageFix"/>
<feBlend mode="normal" in="SourceGraphic" in2="BackgroundImageFix" result="shape"/>
<feGaussianBlur stdDeviation="4" result="effect1_foregroundBlur_2000_674"/>
</filter>
<clipPath id="clip0_2000_674">
<rect width="480" height="270" fill="white"/>
</clipPath>
</defs>
</svg>
